<?xml version="1.0" encoding="utf-8"?>
<!-- Generator: Adobe Illustrator 16.0.0, SVG Export Plug-In . SVG Version: 6.00 Build 0)  -->
<!DOCTYPE svg PUBLIC "-//W3C//DTD SVG 1.1//EN" "http://www.w3.org/Graphics/SVG/1.1/DTD/svg11.dtd">
<svg version="1.1" id="レイヤー_1" xmlns="http://www.w3.org/2000/svg" xmlns:xlink="http://www.w3.org/1999/xlink" x="0px"
	 y="0px" width="288px" height="240px" viewBox="0 0 288 240" enable-background="new 0 0 288 240" xml:space="preserve">
<path fill="#FFFFFF" d="M176.273,3.312c-4.793-4.566-12.396-4.386-16.962,0.415c-4.573,4.8-4.378,12.394,0.415,16.968L251.777,108
	H12c-6.625,0-12,5.375-12,12s5.375,12,12,12h239.394l-91.668,87.312c-4.801,4.571-4.988,12.169-0.415,16.97
	c2.36,2.473,5.521,3.719,8.688,3.719c2.977,0,5.953-1.098,8.273-3.313l104.695-99.718C285.503,132.437,288,126.414,288,120
	s-2.497-12.438-7.242-17.172L176.273,3.312z"/>
</svg>
